<svg width="1024" height="1024" viewBox="0 0 1024 1024" fill="none" xmlns="http://www.w3.org/2000/svg">
<path d="M512 166V412.167C494.195 401.887 473.493 397.774 453.11 400.467C432.727 403.159 413.804 412.507 399.279 427.058C384.754 441.609 375.44 460.549 372.783 480.937C370.126 501.324 374.276 522.018 384.588 539.806C394.899 557.593 410.795 571.477 429.807 579.303C448.82 587.129 469.884 588.459 489.729 583.085C509.574 577.711 527.09 565.935 539.555 549.585C552.021 533.235 558.739 513.226 558.667 492.667V259.333H652V166H512ZM465.333 539.333C456.104 539.333 447.081 536.596 439.407 531.469C431.732 526.341 425.751 519.052 422.219 510.525C418.687 501.998 417.763 492.615 419.563 483.562C421.364 474.51 425.809 466.195 432.335 459.668C438.862 453.142 447.177 448.697 456.229 446.897C465.282 445.096 474.665 446.02 483.192 449.552C491.719 453.084 499.007 459.066 504.135 466.74C509.263 474.414 512 483.437 512 492.667C512 505.043 507.083 516.913 498.332 525.665C489.58 534.417 477.71 539.333 465.333 539.333Z" fill="#E91E63"/>
<path d="M82.2727 726.909H95.7273L127.364 804.182H128.455L160.091 726.909H173.545V820H163V749.273H162.091L133 820H122.818L93.7273 749.273H92.8182V820H82.2727V726.909ZM238.693 791.455V750.182H249.42V820H238.693V808.182H237.966C236.33 811.727 233.784 814.742 230.33 817.227C226.875 819.682 222.511 820.909 217.239 820.909C212.875 820.909 208.996 819.955 205.602 818.045C202.208 816.106 199.542 813.197 197.602 809.318C195.663 805.409 194.693 800.485 194.693 794.545V750.182H205.42V793.818C205.42 798.909 206.845 802.97 209.693 806C212.572 809.03 216.239 810.545 220.693 810.545C223.36 810.545 226.072 809.864 228.83 808.5C231.617 807.136 233.951 805.045 235.83 802.227C237.739 799.409 238.693 795.818 238.693 791.455ZM318.523 765.818L308.886 768.545C308.28 766.939 307.386 765.379 306.205 763.864C305.053 762.318 303.477 761.045 301.477 760.045C299.477 759.045 296.917 758.545 293.795 758.545C289.523 758.545 285.962 759.53 283.114 761.5C280.295 763.439 278.886 765.909 278.886 768.909C278.886 771.576 279.856 773.682 281.795 775.227C283.735 776.773 286.765 778.061 290.886 779.091L301.25 781.636C307.492 783.152 312.144 785.47 315.205 788.591C318.265 791.682 319.795 795.667 319.795 800.545C319.795 804.545 318.644 808.121 316.341 811.273C314.068 814.424 310.886 816.909 306.795 818.727C302.705 820.545 297.947 821.455 292.523 821.455C285.402 821.455 279.508 819.909 274.841 816.818C270.174 813.727 267.22 809.212 265.977 803.273L276.159 800.727C277.129 804.485 278.962 807.303 281.659 809.182C284.386 811.061 287.947 812 292.341 812C297.341 812 301.311 810.939 304.25 808.818C307.22 806.667 308.705 804.091 308.705 801.091C308.705 798.667 307.856 796.636 306.159 795C304.462 793.333 301.856 792.091 298.341 791.273L286.705 788.545C280.311 787.03 275.614 784.682 272.614 781.5C269.644 778.288 268.159 774.273 268.159 769.455C268.159 765.515 269.265 762.03 271.477 759C273.72 755.97 276.765 753.591 280.614 751.864C284.492 750.136 288.886 749.273 293.795 749.273C300.705 749.273 306.129 750.788 310.068 753.818C314.038 756.848 316.856 760.848 318.523 765.818ZM335.943 820V750.182H346.67V820H335.943ZM341.398 738.545C339.307 738.545 337.504 737.833 335.989 736.409C334.504 734.985 333.761 733.273 333.761 731.273C333.761 729.273 334.504 727.561 335.989 726.136C337.504 724.712 339.307 724 341.398 724C343.489 724 345.277 724.712 346.761 726.136C348.277 727.561 349.034 729.273 349.034 731.273C349.034 733.273 348.277 734.985 346.761 736.409C345.277 737.833 343.489 738.545 341.398 738.545ZM394.682 821.455C388.136 821.455 382.5 819.909 377.773 816.818C373.045 813.727 369.409 809.47 366.864 804.045C364.318 798.621 363.045 792.424 363.045 785.455C363.045 778.364 364.348 772.106 366.955 766.682C369.591 761.227 373.258 756.97 377.955 753.909C382.682 750.818 388.197 749.273 394.5 749.273C399.409 749.273 403.833 750.182 407.773 752C411.712 753.818 414.939 756.364 417.455 759.636C419.97 762.909 421.53 766.727 422.136 771.091H411.409C410.591 767.909 408.773 765.091 405.955 762.636C403.167 760.152 399.409 758.909 394.682 758.909C390.5 758.909 386.833 760 383.682 762.182C380.561 764.333 378.121 767.379 376.364 771.318C374.636 775.227 373.773 779.818 373.773 785.091C373.773 790.485 374.621 795.182 376.318 799.182C378.045 803.182 380.47 806.288 383.591 808.5C386.742 810.712 390.439 811.818 394.682 811.818C397.47 811.818 400 811.333 402.273 810.364C404.545 809.394 406.47 808 408.045 806.182C409.621 804.364 410.742 802.182 411.409 799.636H422.136C421.53 803.758 420.03 807.47 417.636 810.773C415.273 814.045 412.136 816.652 408.227 818.591C404.348 820.5 399.833 821.455 394.682 821.455ZM437.818 820V750.182H448.545V820H437.818ZM443.273 738.545C441.182 738.545 439.379 737.833 437.864 736.409C436.379 734.985 435.636 733.273 435.636 731.273C435.636 729.273 436.379 727.561 437.864 726.136C439.379 724.712 441.182 724 443.273 724C445.364 724 447.152 724.712 448.636 726.136C450.152 727.561 450.909 729.273 450.909 731.273C450.909 733.273 450.152 734.985 448.636 736.409C447.152 737.833 445.364 738.545 443.273 738.545ZM488.739 821.636C484.314 821.636 480.299 820.803 476.693 819.136C473.087 817.439 470.223 815 468.102 811.818C465.981 808.606 464.92 804.727 464.92 800.182C464.92 796.182 465.708 792.939 467.284 790.455C468.86 787.939 470.966 785.97 473.602 784.545C476.239 783.121 479.148 782.061 482.33 781.364C485.542 780.636 488.769 780.061 492.011 779.636C496.254 779.091 499.693 778.682 502.33 778.409C504.996 778.106 506.936 777.606 508.148 776.909C509.39 776.212 510.011 775 510.011 773.273V772.909C510.011 768.424 508.784 764.939 506.33 762.455C503.905 759.97 500.223 758.727 495.284 758.727C490.163 758.727 486.148 759.848 483.239 762.091C480.33 764.333 478.284 766.727 477.102 769.273L466.92 765.636C468.739 761.394 471.163 758.091 474.193 755.727C477.254 753.333 480.587 751.667 484.193 750.727C487.83 749.758 491.405 749.273 494.92 749.273C497.163 749.273 499.739 749.545 502.648 750.091C505.587 750.606 508.42 751.682 511.148 753.318C513.905 754.955 516.193 757.424 518.011 760.727C519.83 764.03 520.739 768.455 520.739 774V820H510.011V810.545H509.466C508.739 812.061 507.527 813.682 505.83 815.409C504.133 817.136 501.875 818.606 499.057 819.818C496.239 821.03 492.799 821.636 488.739 821.636ZM490.375 812C494.617 812 498.193 811.167 501.102 809.5C504.042 807.833 506.254 805.682 507.739 803.045C509.254 800.409 510.011 797.636 510.011 794.727V784.909C509.557 785.455 508.557 785.955 507.011 786.409C505.496 786.833 503.739 787.212 501.739 787.545C499.769 787.848 497.845 788.121 495.966 788.364C494.117 788.576 492.617 788.758 491.466 788.909C488.678 789.273 486.072 789.864 483.648 790.682C481.254 791.47 479.314 792.667 477.83 794.273C476.375 795.848 475.648 798 475.648 800.727C475.648 804.455 477.027 807.273 479.784 809.182C482.572 811.061 486.102 812 490.375 812ZM551.045 778V820H540.318V750.182H550.682V761.091H551.591C553.227 757.545 555.712 754.697 559.045 752.545C562.379 750.364 566.682 749.273 571.955 749.273C576.682 749.273 580.818 750.242 584.364 752.182C587.909 754.091 590.667 757 592.636 760.909C594.606 764.788 595.591 769.697 595.591 775.636V820H584.864V776.364C584.864 770.879 583.439 766.606 580.591 763.545C577.742 760.455 573.833 758.909 568.864 758.909C565.439 758.909 562.379 759.652 559.682 761.136C557.015 762.621 554.909 764.788 553.364 767.636C551.818 770.485 551.045 773.939 551.045 778ZM703.557 750.182C703.011 745.576 700.799 742 696.92 739.455C693.042 736.909 688.284 735.636 682.648 735.636C678.527 735.636 674.92 736.303 671.83 737.636C668.769 738.97 666.375 740.803 664.648 743.136C662.951 745.47 662.102 748.121 662.102 751.091C662.102 753.576 662.693 755.712 663.875 757.5C665.087 759.258 666.633 760.727 668.511 761.909C670.39 763.061 672.36 764.015 674.42 764.773C676.481 765.5 678.375 766.091 680.102 766.545L689.557 769.091C691.981 769.727 694.678 770.606 697.648 771.727C700.648 772.848 703.511 774.379 706.239 776.318C708.996 778.227 711.269 780.682 713.057 783.682C714.845 786.682 715.739 790.364 715.739 794.727C715.739 799.758 714.42 804.303 711.784 808.364C709.178 812.424 705.36 815.652 700.33 818.045C695.33 820.439 689.254 821.636 682.102 821.636C675.436 821.636 669.663 820.561 664.784 818.409C659.936 816.258 656.117 813.258 653.33 809.409C650.572 805.561 649.011 801.091 648.648 796H660.284C660.587 799.515 661.769 802.424 663.83 804.727C665.92 807 668.557 808.697 671.739 809.818C674.951 810.909 678.405 811.455 682.102 811.455C686.405 811.455 690.269 810.758 693.693 809.364C697.117 807.939 699.83 805.97 701.83 803.455C703.83 800.909 704.83 797.939 704.83 794.545C704.83 791.455 703.966 788.939 702.239 787C700.511 785.061 698.239 783.485 695.42 782.273C692.602 781.061 689.557 780 686.284 779.091L674.83 775.818C667.557 773.727 661.799 770.742 657.557 766.864C653.314 762.985 651.193 757.909 651.193 751.636C651.193 746.424 652.602 741.879 655.42 738C658.269 734.091 662.087 731.061 666.875 728.909C671.693 726.727 677.072 725.636 683.011 725.636C689.011 725.636 694.345 726.712 699.011 728.864C703.678 730.985 707.375 733.894 710.102 737.591C712.86 741.288 714.314 745.485 714.466 750.182H703.557ZM743.545 778V820H732.818V726.909H743.545V761.091H744.455C746.091 757.485 748.545 754.621 751.818 752.5C755.121 750.348 759.515 749.273 765 749.273C769.758 749.273 773.924 750.227 777.5 752.136C781.076 754.015 783.848 756.909 785.818 760.818C787.818 764.697 788.818 769.636 788.818 775.636V820H778.091V776.364C778.091 770.818 776.652 766.53 773.773 763.5C770.924 760.439 766.97 758.909 761.909 758.909C758.394 758.909 755.242 759.652 752.455 761.136C749.697 762.621 747.515 764.788 745.909 767.636C744.333 770.485 743.545 773.939 743.545 778ZM836.807 821.455C830.504 821.455 824.973 819.955 820.216 816.955C815.489 813.955 811.792 809.758 809.125 804.364C806.489 798.97 805.17 792.667 805.17 785.455C805.17 778.182 806.489 771.833 809.125 766.409C811.792 760.985 815.489 756.773 820.216 753.773C824.973 750.773 830.504 749.273 836.807 749.273C843.11 749.273 848.625 750.773 853.352 753.773C858.11 756.773 861.807 760.985 864.443 766.409C867.11 771.833 868.443 778.182 868.443 785.455C868.443 792.667 867.11 798.97 864.443 804.364C861.807 809.758 858.11 813.955 853.352 816.955C848.625 819.955 843.11 821.455 836.807 821.455ZM836.807 811.818C841.595 811.818 845.534 810.591 848.625 808.136C851.716 805.682 854.004 802.455 855.489 798.455C856.973 794.455 857.716 790.121 857.716 785.455C857.716 780.788 856.973 776.439 855.489 772.409C854.004 768.379 851.716 765.121 848.625 762.636C845.534 760.152 841.595 758.909 836.807 758.909C832.019 758.909 828.08 760.152 824.989 762.636C821.898 765.121 819.61 768.379 818.125 772.409C816.64 776.439 815.898 780.788 815.898 785.455C815.898 790.121 816.64 794.455 818.125 798.455C819.61 802.455 821.898 805.682 824.989 808.136C828.08 810.591 832.019 811.818 836.807 811.818ZM884.818 846.182V750.182H895.182V761.273H896.455C897.242 760.061 898.333 758.515 899.727 756.636C901.152 754.727 903.182 753.03 905.818 751.545C908.485 750.03 912.091 749.273 916.636 749.273C922.515 749.273 927.697 750.742 932.182 753.682C936.667 756.621 940.167 760.788 942.682 766.182C945.197 771.576 946.455 777.939 946.455 785.273C946.455 792.667 945.197 799.076 942.682 804.5C940.167 809.894 936.682 814.076 932.227 817.045C927.773 819.985 922.636 821.455 916.818 821.455C912.333 821.455 908.742 820.712 906.045 819.227C903.348 817.712 901.273 816 899.818 814.091C898.364 812.152 897.242 810.545 896.455 809.273H895.545V846.182H884.818ZM895.364 785.091C895.364 790.364 896.136 795.015 897.682 799.045C899.227 803.045 901.485 806.182 904.455 808.455C907.424 810.697 911.061 811.818 915.364 811.818C919.848 811.818 923.591 810.636 926.591 808.273C929.621 805.879 931.894 802.667 933.409 798.636C934.955 794.576 935.727 790.061 935.727 785.091C935.727 780.182 934.97 775.758 933.455 771.818C931.97 767.848 929.712 764.712 926.682 762.409C923.682 760.076 919.909 758.909 915.364 758.909C911 758.909 907.333 760.015 904.364 762.227C901.394 764.409 899.152 767.47 897.636 771.409C896.121 775.318 895.364 779.879 895.364 785.091Z" fill="black"/>
</svg>
